# Blender v2.79 (sub 0) OBJ File: ''
# www.blender.org
mtllib piramide.mtl
o Plane.001
v -13.000000 0.000004 -10.846960
v -13.000000 -0.000004 10.846960
v -11.327809 -0.000004 13.000000
v 11.327809 -0.000004 13.000000
v 13.000000 -0.000004 10.846960
v 13.000000 0.000004 -10.846960
v 11.327809 0.000004 -13.000000
v -11.327809 0.000004 -13.000000
v 13.000000 0.700004 -11.158179
v 11.249410 0.700004 -13.000000
v 11.020440 0.700004 -14.660000
v -11.020440 0.700004 -14.660000
v -11.249410 0.700004 -13.000000
v 9.667222 3.406442 13.306782
v 10.196580 2.805659 11.947169
v 11.249410 0.699996 13.000000
v 11.020440 0.699996 14.660000
v -10.196580 2.805667 -11.947169
v -12.014110 2.671776 -10.172299
v -13.000000 0.700004 -11.158179
v 12.654560 4.700004 -12.659998
v 12.660000 4.700004 -12.655278
v 12.660000 4.700004 -12.659998
v 13.000000 0.699996 11.158179
v 12.014110 2.671768 10.172299
v 13.418280 3.183435 9.723757
v 14.660000 0.699996 10.965469
v -13.000000 0.699996 11.158179
v -14.660000 0.699996 10.965469
v -13.418280 3.183435 9.723757
v -12.014110 2.671768 10.172299
v -15.000000 -0.000004 15.000000
v -12.660000 4.699996 12.660002
v -12.660000 4.699996 12.655282
v -13.418280 3.183435 9.723757
v -14.660000 0.699996 10.965469
v -14.660000 0.700004 -10.965469
v -13.418280 3.183443 -9.723753
v -12.660000 4.700004 -12.655278
v -12.660000 4.700004 -12.659998
v -15.000000 0.000004 -15.000000
v -15.000000 0.000000 0.000000
v -12.654560 4.700004 -12.659998
v 10.196580 2.805667 -11.947169
v 9.667222 3.406450 -13.306778
v 14.660000 0.700004 -10.965469
v 13.418280 3.183443 -9.723753
v 12.014110 2.671776 -10.172299
v -9.667222 3.406450 -13.306778
v 12.654560 4.699996 12.660002
v 12.660000 4.699996 12.660002
v 12.660000 4.699996 12.655282
v -11.249410 0.699996 13.000000
v 15.000000 0.000000 0.000000
v 15.000000 -0.000004 15.000000
v 75.042000 -100.000031 75.041969
v 75.042000 -99.999969 -75.042030
v 15.000000 0.000004 -15.000000
v -12.014110 2.671776 -10.172299
v -13.418280 3.183443 -9.723753
v -14.660000 0.700004 -10.965469
v -12.654560 4.699996 12.660002
v 12.014110 2.671776 -10.172299
v 0.000000 0.000004 -15.000000
v 20.925173 -99.999969 -75.042030
v 20.220959 -99.999969 -75.042030
v 0.000000 -99.999969 -75.042030
v -20.462656 -99.999969 -75.042030
v -21.168264 -99.999969 -75.042030
v -75.042000 -99.999969 -75.042030
v -15.000000 0.000004 -15.000000
v -12.014110 2.671768 10.172299
v -10.196580 2.805659 11.947169
v 15.000000 0.000004 -15.000000
v 0.000000 0.000004 -15.000000
v 13.418280 3.183435 9.723757
v 12.014110 2.671768 10.172299
v -15.000000 0.000000 0.000000
v -75.042000 -100.000031 75.041969
v -73.358963 -97.196930 73.358932
v -73.133530 -96.821465 73.133499
v -56.416836 -68.979790 56.416813
v -56.202377 -68.622612 56.202354
v -54.757915 -66.216858 54.757893
v -15.000000 -0.000004 15.000000
v -9.667222 3.406442 13.306782
v 13.418280 3.183443 -9.723753
v 14.660000 0.700004 -10.965469
v 14.660000 0.699996 10.965469
v 15.000000 -0.000004 15.000000
v 15.000000 0.000000 0.000000
v -11.020440 0.699996 14.660000
v 0.000000 -0.000004 15.000000
v 4.041929 -0.000004 15.000000
v 4.182693 -0.000004 15.000000
v 20.925173 -100.000031 75.041969
v -20.462656 -100.000031 75.041969
v 0.000000 -100.000031 75.041969
v -14.931538 -66.216858 54.757893
v 0.000000 -66.216858 54.757893
v -4.090240 -0.000004 15.000000
v 20.455866 -97.196930 73.358932
v 73.358963 -97.196930 73.358932
v 15.269034 -66.216858 54.757893
v 54.757915 -66.216858 54.757893
v -15.325418 -68.622612 56.202354
v 0.000000 -68.622612 56.202354
v 0.000000 -97.196930 73.358932
v -20.003721 -97.196930 73.358932
v -15.383896 -68.979782 -8.776184
v 0.000000 -68.979782 -8.776180
v 15.671817 -68.622612 56.202354
v 56.202377 -68.622612 56.202354
v 20.393003 -96.821465 73.133499
v 73.133530 -96.821465 73.133499
v -15.914375 -68.979790 56.416809
v -15.853880 -68.622612 56.202354
v -21.168264 -100.000031 75.041969
v -20.693504 -97.196930 73.358932
v -15.446418 -66.216858 54.757893
v -4.231283 -0.000004 15.000000
v 19.706701 -96.821442 7.940505
v 19.767448 -97.196930 73.358932
v 14.755173 -66.216858 54.757893
v 15.144400 -68.622612 56.202354
v 20.220959 -100.000031 75.041969
v 0.000000 -96.821442 7.940505
v 15.202188 -68.979782 -8.776184
v 15.731617 -68.979790 56.416813
v -20.629911 -96.821465 73.133499
v -19.942249 -96.821442 7.940505
v 56.416836 -68.979790 56.416813
v 0.000000 -100.000000 -0.000032
v 0.000000 0.000000 0.000000
v 0.000000 -0.000004 15.000000
vt 0.051492 0.600891
vt 0.051492 0.600891
vt 0.041674 0.603929
vt 0.041674 0.603929
vt 0.051492 0.600891
vt 0.051492 0.600891
vt 0.041674 0.603929
vt 0.041674 0.603929
vt 0.051415 0.603778
vt 0.042237 0.606524
vt 0.034086 0.626808
vt 0.034086 0.626808
vt 0.036304 0.618124
vt 0.036304 0.618124
vt 0.038134 0.616357
vt 0.038134 0.616357
vt 0.044235 0.620061
vt 0.045160 0.615797
vt 0.036304 0.618124
vt 0.034086 0.626808
vt 0.042237 0.606524
vt 0.045160 0.615797
vt 0.054152 0.612462
vt 0.051415 0.603778
vt 0.052705 0.623246
vt 0.052903 0.623200
vt 0.052862 0.623387
vt 0.116256 0.545412
vt 0.124884 0.547624
vt 0.126412 0.542076
vt 0.115546 0.539289
vt 0.116256 0.545412
vt 0.115546 0.539289
vt 0.126412 0.542076
vt 0.124884 0.547624
vt 0.069291 0.633299
vt 0.052862 0.623387
vt 0.052903 0.623200
vt 0.059641 0.614068
vt 0.068914 0.619440
vt 0.068914 0.619440
vt 0.059641 0.614068
vt 0.052903 0.623200
vt 0.052862 0.623387
vt 0.069291 0.633299
vt 0.074933 0.592644
vt 0.052705 0.623246
vt 0.051415 0.603778
vt 0.045160 0.615797
vt 0.044235 0.620061
vt 0.116256 0.545412
vt 0.115546 0.539289
vt 0.126412 0.542076
vt 0.124884 0.547624
vt 0.044235 0.620061
vt 0.052705 0.623246
vt 0.052862 0.623387
vt 0.052903 0.623200
vt 0.051415 0.603778
vt 0.042237 0.606524
vt 0.000084 0.500000
vt 0.039205 0.539121
vt 0.500000 0.391509
vt 0.500000 0.391509
vt 0.039205 0.539121
vt 0.116256 0.545412
vt 0.124884 0.547624
vt 0.126412 0.542076
vt 0.115546 0.539289
vt 0.052705 0.623246
vt 0.054152 0.612462
vt 0.999916 0.500000
vt 0.960795 0.539120
vt 0.500000 0.391509
vt 0.500000 0.391509
vt 0.500000 0.391509
vt 0.500000 0.391509
vt 0.500000 0.391509
vt 0.500000 0.391509
vt 0.960795 0.539120
vt 0.054152 0.612462
vt 0.045160 0.615797
vt 0.042798 0.641007
vt 0.000084 0.597748
vt 0.042798 0.641007
vt 0.059641 0.614068
vt 0.054152 0.612462
vt 0.000084 0.500000
vt 0.039205 0.539121
vt 0.500000 0.391509
vt 0.423201 0.416111
vt 0.404001 0.422261
vt 0.384801 0.428412
vt 0.346402 0.440713
vt 0.269603 0.465315
vt 0.039205 0.539121
vt 0.115108 0.547994
vt 0.115108 0.547994
vt 0.044235 0.620061
vt 0.042237 0.606524
vt 0.069291 0.633299
vt 0.059641 0.614068
vt 0.068914 0.619440
vt 0.068914 0.619440
vt 0.069291 0.633299
vt 0.074933 0.592644
vt 0.036304 0.618124
vt 0.034086 0.626808
vt 0.038134 0.616357
vt 0.038134 0.616357
vt 0.115108 0.547994
vt 0.115108 0.547994
vt 0.042798 0.641007
vt 0.000084 0.597748
vt 0.010763 0.608563
vt 0.021441 0.619377
vt 0.042798 0.641007
vt 0.500000 0.391509
vt 0.500000 0.391509
vt 0.500000 0.391509
vt 0.254901 0.263145
vt 0.250000 0.195754
vt 0.000000 0.000000
vt 0.009801 0.134780
vt 0.420233 0.379675
vt 0.423800 0.433092
vt 0.021399 0.320504
vt 0.260700 0.356006
vt 0.271399 0.516258
vt 0.336600 0.305933
vt 0.333333 0.261006
vt 0.416667 0.326257
vt 0.418300 0.348721
vt 0.377450 0.327327
vt 0.375000 0.293632
vt 0.340466 0.367840
vt 0.347599 0.474675
vt 0.400291 0.376716
vt 0.404750 0.443488
vt 0.379901 0.361022
vt 0.339867 0.350859
vt 0.500000 0.391509
vt 0.419934 0.371184
vt 0.259801 0.330535
vt 0.019602 0.269560
vt 0.398062 0.343330
vt 0.418450 0.352966
vt 0.255350 0.275880
vt 0.336900 0.314423
vt 0.010700 0.160252
vt 0.500000 0.391509
vt 0.395833 0.309945
vt 0.377675 0.333695
vt 0.380350 0.373758
vt 0.399917 0.366103
vt 0.397875 0.338024
vt 0.385700 0.453883
vn 0.0000 1.0000 0.0000
vn -0.7225 -0.0809 0.6867
vn 0.0000 0.0000 1.0000
vn -0.8630 -0.4910 -0.1190
vn 0.5919 -0.5772 0.5626
vn -0.1009 -0.4848 -0.8688
vn 0.7620 0.2631 0.5918
vn 0.1009 -0.4848 -0.8688
vn -0.8966 0.4428 0.0000
vn -0.7620 0.2631 -0.5918
vn -0.8630 -0.4910 0.1190
vn -0.1009 -0.4848 0.8688
vn 0.8630 -0.4910 0.1190
vn 0.7225 -0.0809 -0.6867
vn 0.8573 0.5148 0.0000
vn 0.1009 -0.4848 0.8688
vn -0.5919 -0.5772 0.5626
vn 0.0000 0.5148 -0.8573
vn -0.7620 0.2631 0.5918
vn 0.5919 -0.5772 -0.5626
vn -0.0000 0.4428 -0.8966
vn -0.4330 0.7500 -0.5000
vn -0.8573 0.5148 0.0000
vn 0.7225 -0.0809 0.6867
vn 1.0000 0.0000 0.0000
vn 0.4330 0.7500 -0.5000
vn -0.5919 -0.5772 -0.5626
vn 0.8966 0.4428 0.0000
vn -0.7225 -0.0809 -0.6867
vn 0.0000 0.0000 -1.0000
vn -1.0000 0.0000 0.0000
vn -0.4330 0.7500 0.5000
vn 0.4330 0.7500 0.5000
vn 0.8630 -0.4910 -0.1190
vn 0.7620 0.2631 -0.5918
vn 0.0000 0.4428 0.8966
vn 0.0000 0.4671 0.8842
vn 0.0000 0.4792 0.8777
vn -0.0000 0.4892 0.8722
vn 0.0000 -1.0000 -0.0000
vn 0.0000 0.5148 0.8573
vn -0.1295 0.6600 0.7400
vn 0.0000 0.8689 0.4951
vn 0.1502 0.8480 0.5082
vn 0.5122 -0.4282 0.7445
vn 0.0000 -0.4902 0.8716
vn 0.0000 -1.0000 0.0055
vn 0.1292 0.6599 0.7402
vn 0.5208 -0.8536 0.0085
vn -0.6637 0.6322 0.3998
vn -0.1503 0.8480 0.5082
vn -0.5117 0.8591 0.0108
vn -0.5127 -0.4280 0.7443
vn -0.5219 -0.8530 0.0085
vn 0.9873 -0.1589 0.0092
vn 0.6643 0.6315 0.3998
vn 0.5114 0.8593 0.0108
vn -0.9876 -0.1570 0.0092
usemtl Material_003.001
s 1
f 1/1/1 2/2/1 3/3/1 4/4/1 5/5/1 6/6/1 7/7/1 8/8/1
f 7/7/2 9/9/2 10/10/2
f 11/11/1 12/12/1 13/13/1 10/14/1
f 10/14/3 13/13/3 8/15/3 7/16/3
f 14/17/4 15/18/4 16/19/4 17/20/4
f 13/21/5 18/22/5 19/23/5 20/24/5
f 21/25/1 22/26/1 23/27/1
f 24/28/6 25/29/6 26/30/6 27/31/6
f 8/8/7 20/24/7 1/1/7
f 28/32/8 29/33/8 30/34/8 31/35/8
f 32/36/9 33/37/9 34/38/9 35/39/9 36/40/9 37/41/9 38/42/9 39/43/9 40/44/9 41/45/9 42/46/9
f 43/47/1 40/44/1 39/43/1
f 4/4/10 24/48/10 5/5/10
f 10/14/11 44/49/11 45/50/11 11/11/11
f 9/51/12 46/52/12 47/53/12 48/54/12
f 49/55/13 18/22/13 13/13/13 12/12/13
f 50/56/1 51/57/1 52/58/1
f 3/3/14 28/59/14 53/60/14
f 24/28/1 27/31/1 46/52/1 9/51/1
f 54/61/15 55/62/15 56/63/15 57/64/15 58/65/15
f 20/66/16 59/67/16 60/68/16 61/69/16
f 62/70/1 34/38/1 33/37/1
f 10/10/17 9/9/17 63/71/17 44/49/17
f 64/72/18 58/73/18 57/64/18 65/74/18 66/75/18 67/76/18 68/77/18 69/78/18 70/79/18 71/80/18
f 7/7/19 6/6/19 9/9/19
f 53/60/20 28/59/20 72/81/20 73/82/20
f 74/83/21 75/84/21 41/85/21 40/44/21 43/47/21 49/55/21 12/12/21 11/11/21 45/50/21 21/25/21 23/27/21
f 15/18/22 14/17/22 50/56/22 52/58/22 76/86/22 77/87/22
f 78/88/23 71/89/23 70/79/23 79/90/23 80/91/23 81/92/23 82/93/23 83/94/23 84/95/23 85/96/23
f 8/8/24 13/21/24 20/24/24
f 2/97/25 1/98/25 20/66/25 28/32/25
f 72/81/26 35/39/26 34/38/26 62/70/26 86/99/26 73/82/26
f 16/100/27 15/18/27 77/87/27 24/48/27
f 74/101/28 23/27/28 22/26/28 87/102/28 88/103/28 89/104/28 76/86/28 52/58/28 51/57/28 90/105/28 91/106/28
f 4/4/29 16/100/29 24/48/29
f 16/19/1 53/107/1 92/108/1 17/20/1
f 4/109/30 3/110/30 53/107/30 16/19/30
f 6/111/31 5/112/31 24/28/31 9/51/31
f 63/71/32 87/102/32 22/26/32 21/25/32 45/50/32 44/49/32
f 18/22/33 49/55/33 43/47/33 39/43/33 38/42/33 19/23/33
f 53/107/34 73/82/34 86/99/34 92/108/34
f 28/32/1 20/66/1 61/69/1 29/33/1
f 3/3/35 2/2/35 28/59/35
f 17/20/36 92/108/36 86/99/36 62/70/36 33/37/36 32/113/36 93/114/37 94/115/38 95/116/38 90/117/39 51/57/36 50/56/36 14/17/36
f 96/118/40 65/74/40 57/64/40 56/63/40
f 97/119/40 68/77/40 67/76/40 98/120/40
f 99/121/41 100/122/41 93/123/41 101/124/41
f 102/125/42 96/118/41 56/63/41 103/126/41
f 95/127/38 104/128/41 105/129/41 90/117/39
f 106/130/41 107/131/41 100/122/41 99/121/41
f 97/119/41 98/120/41 108/132/43 109/133/44
f 110/134/45 111/135/46 107/131/47 106/130/47
f 104/128/41 112/136/41 113/137/41 105/129/41
f 114/138/41 102/125/42 103/126/41 115/139/41
f 82/93/41 116/140/41 117/141/41 83/94/41
f 79/90/41 118/142/41 119/143/48 80/91/41
f 83/94/41 117/141/41 120/144/41 84/95/41
f 84/95/41 120/144/41 121/145/41 85/96/41
f 79/90/40 70/79/40 69/78/40 118/142/40
f 116/140/49 110/134/49 106/130/49 117/141/49
f 118/142/41 97/119/41 109/133/44 119/143/48
f 117/141/41 106/130/41 99/121/41 120/144/41
f 120/144/41 99/121/41 101/124/41 121/145/41
f 118/142/40 69/78/40 68/77/40 97/119/40
f 122/146/50 123/147/51 102/125/42 114/138/52
f 124/148/41 125/149/41 112/136/41 104/128/41
f 94/150/38 124/148/41 104/128/41 95/127/38
f 123/147/51 126/151/41 96/118/41 102/125/42
f 126/151/40 66/75/40 65/74/40 96/118/40
f 98/120/40 67/76/40 66/75/40 126/151/40
f 108/132/43 98/120/41 126/151/41 123/147/51
f 93/123/37 100/122/41 124/148/41 94/150/38
f 100/122/41 107/131/41 125/149/41 124/148/41
f 127/152/43 108/132/43 123/147/51 122/146/50
f 107/131/47 111/135/46 128/153/53 125/149/47
f 125/149/54 128/153/54 129/154/54 112/136/54
f 130/155/55 131/156/56 110/134/45 116/140/55
f 81/92/41 130/155/41 116/140/41 82/93/41
f 112/136/41 129/154/41 132/157/41 113/137/41
f 131/156/56 127/152/43 111/135/46 110/134/45
f 109/133/44 108/132/43 127/152/43 131/156/56
f 80/91/41 119/143/48 130/155/41 81/92/41
f 119/143/48 109/133/44 131/156/56 130/155/57
f 111/135/46 127/152/43 122/146/50 128/153/53
f 128/153/53 122/146/50 114/138/58 129/154/58
f 129/154/41 114/138/41 115/139/41 132/157/41
l 58 74
l 85 32
l 78 42
l 135 93
l 71 41
l 55 90
l 64 75
l 54 91
l 133 134
o Cube_Cube.000
v 0.000000 23.227201 0.000008
v -7.500000 12.500002 -7.499996
v -7.500000 12.499998 7.500004
v 0.000000 23.227201 0.000008
v 7.500000 12.500002 -7.499996
v 0.000000 23.227201 0.000008
v 7.500000 12.499998 7.500004
v 0.000000 23.227201 0.000008
vt 0.703170 0.337451
vt 0.386652 0.453160
vt 0.703170 0.674455
vt 0.193252 0.000149
vt 0.000149 0.276343
vt 0.386355 0.276343
vt 0.703170 0.000149
vt 0.703170 0.337153
vt 0.386652 0.115858
vt 0.316667 0.662847
vt 0.316667 0.999852
vt 0.000149 0.778556
vt 0.386355 0.662549
vt 0.316964 0.662847
vt 0.316964 0.662847
vt 0.316964 0.662847
vt 0.703170 0.337451
vt 0.193252 0.000149
vt 0.703170 0.000149
vt 0.316667 0.662847
vt 0.000149 0.662549
vt 0.316964 0.662847
vn -0.8196 0.5730 0.0000
vn 0.0000 0.5730 -0.8196
vn 0.8196 0.5730 0.0000
vn 0.0000 0.5730 0.8196
vn 0.0000 -1.0000 -0.0000
vn 0.0000 0.0000 1.0000
usemtl Material_001.001
s 1
f 136/158/59 137/159/59 138/160/59
f 139/161/60 140/162/60 137/163/60
f 141/164/61 142/165/61 140/166/61
f 143/167/62 138/168/62 142/169/62
f 140/162/63 138/170/63 137/163/63
f 139/171/64 143/172/64 141/173/64
f 136/158/64 139/174/64 137/159/64
f 139/161/64 141/175/64 140/162/64
f 141/164/64 143/176/64 142/165/64
f 143/167/64 136/177/64 138/168/64
f 140/162/63 142/178/63 138/170/63
f 139/171/64 136/179/64 143/172/64
o Cube_Cube.001
v 0.000000 23.227201 0.000004
v -7.500000 12.500001 -7.499998
v -7.500000 12.499999 7.500002
v 0.000000 23.227201 0.000004
v 7.500000 12.500001 -7.499998
v 0.000000 23.227201 0.000004
v 7.500000 12.499999 7.500002
v 0.000000 23.227201 0.000004
vt 0.703170 0.337451
vt 0.386652 0.453160
vt 0.703170 0.674455
vt 0.193252 0.000149
vt 0.000149 0.276343
vt 0.386355 0.276343
vt 0.703170 0.000149
vt 0.703170 0.337153
vt 0.386652 0.115858
vt 0.316667 0.662847
vt 0.316667 0.999852
vt 0.000149 0.778556
vt 0.386355 0.662549
vt 0.316964 0.662847
vt 0.316964 0.662847
vt 0.316964 0.662847
vt 0.703170 0.337451
vt 0.193252 0.000149
vt 0.703170 0.000149
vt 0.316667 0.662847
vt 0.000149 0.662549
vt 0.316964 0.662847
vn -0.8196 0.5730 0.0000
vn 0.0000 0.5730 -0.8196
vn 0.8196 0.5730 0.0000
vn 0.0000 0.5730 0.8196
vn 0.0000 -1.0000 -0.0000
vn 0.0000 0.0000 1.0000
usemtl Material_001
s 1
f 144/180/65 145/181/65 146/182/65
f 147/183/66 148/184/66 145/185/66
f 149/186/67 150/187/67 148/188/67
f 151/189/68 146/190/68 150/191/68
f 148/184/69 146/192/69 145/185/69
f 147/193/70 151/194/70 149/195/70
f 144/180/70 147/196/70 145/181/70
f 147/183/70 149/197/70 148/184/70
f 149/186/70 151/198/70 150/187/70
f 151/189/70 144/199/70 146/190/70
f 148/184/69 150/200/69 146/192/69
f 147/193/70 144/201/70 151/194/70
o Cube
v 1.000000 -1.000000 -1.000000
v 1.000000 -1.000000 1.000000
v -1.000000 -1.000000 1.000000
v -1.000000 -1.000000 -1.000000
v 1.000000 1.000000 -0.999999
v 0.999999 1.000000 1.000001
v -1.000000 1.000000 1.000000
v -1.000000 1.000000 -1.000000
vn 0.0000 -1.0000 0.0000
vn 0.0000 1.0000 0.0000
vn 1.0000 0.0000 0.0000
vn -0.0000 -0.0000 1.0000
vn -1.0000 -0.0000 -0.0000
vn 0.0000 0.0000 -1.0000
usemtl Material
s off
f 152//71 153//71 154//71 155//71
f 156//72 159//72 158//72 157//72
f 152//73 156//73 157//73 153//73
f 153//74 157//74 158//74 154//74
f 154//75 158//75 159//75 155//75
f 156//76 152//76 155//76 159//76
