# Blender v2.79 (sub 0) OBJ File: ''
# www.blender.org
mtllib rua.mtl
o Plane_Plane_Material.001
v -3.677141 -0.004409 61.027908
v -3.677146 -0.004389 -60.938080
v -6.078911 -0.004389 -60.938080
v -6.078905 -0.004409 61.027908
v 1.356720 -0.004409 61.027908
v 1.356715 -0.004389 -60.938080
v 1.338073 -0.013182 -60.938080
v 1.338078 -0.013202 61.027908
v -3.662886 -0.017595 -60.938080
v -3.662881 -0.017615 61.027908
v -3.662881 -0.280738 61.027908
v -3.662886 -0.280718 -60.938080
v 1.338078 -0.280738 61.027908
v 1.338073 -0.280718 -60.938080
v -0.299795 -0.170455 -60.938080
v -0.299790 -0.170475 61.027908
v -2.099756 -0.170455 -60.938080
v -2.099750 -0.170475 61.027908
v 3.754103 -0.004409 61.027908
v 3.754097 -0.004389 -60.938080
vt 0.947379 0.000000
vt 0.947380 1.000000
vt 0.715657 1.000000
vt 0.715657 0.000000
vt 0.713797 1.000000
vt 0.713795 0.000000
vt 0.715655 0.000000
vt 0.715657 1.000000
vt 0.999998 0.000000
vt 1.000000 1.000000
vt 0.974547 1.000000
vt 0.974545 0.000000
vt 0.000002 1.000000
vt 0.000000 0.000000
vt 0.157247 0.000000
vt 0.157249 1.000000
vt 0.330907 0.000000
vt 0.330909 1.000000
vt 0.482493 0.000000
vt 0.482495 1.000000
vt 0.948664 1.000000
vt 0.948663 0.000000
vt 0.974543 0.000000
vt 0.974545 1.000000
vt 0.482497 1.000000
vt 0.482495 0.000000
vt 0.948662 0.000000
vt 0.948663 1.000000
vn 0.0000 1.0000 0.0000
vn -0.4266 0.9044 0.0000
vn 1.0000 0.0000 -0.0000
vn 0.0672 0.9977 0.0000
vn -0.0704 0.9975 0.0000
vn -1.0000 0.0000 0.0000
vn 0.6795 0.7337 0.0000
usemtl Material.001
s 1
f 1/1/1 2/2/1 3/3/1 4/4/1
f 5/5/2 6/6/2 7/7/2 8/8/2
f 9/9/3 10/10/3 11/11/3 12/12/3
f 13/13/4 14/14/4 15/15/4 16/16/4
f 16/16/1 15/15/1 17/17/1 18/18/1
f 18/18/5 17/17/5 12/19/5 11/20/5
f 8/21/6 7/22/6 14/23/6 13/24/6
f 19/25/1 20/26/1 6/6/1 5/5/1
f 10/27/7 9/28/7 2/2/7 1/1/7
