# Blender v2.79 (sub 0) OBJ File: 'muro.blend'
# www.blender.org
mtllib muro.mtl
o Cube
v 0.251630 0.043782 -7.932221
v 0.251630 0.043782 7.932222
v -0.251630 0.043782 7.932220
v -0.251630 0.043782 -7.932225
v 0.251630 5.676079 -7.932218
v 0.251630 5.676079 7.932227
v -0.251630 5.676079 7.932219
v -0.251630 5.676079 -7.932222
vt 0.516438 0.925651
vt 0.483562 0.925651
vt 0.483562 0.059405
vt 0.516437 0.059405
vt 0.999900 0.925651
vt 0.999900 0.059405
vt 0.253410 0.013315
vt 0.746589 0.013315
vt 0.746590 0.046190
vt 0.253411 0.046190
vt 0.000100 0.059405
vt 0.000100 0.925652
vt 0.245729 0.946338
vt 0.754270 0.946338
vt 0.754271 0.979213
vt 0.245730 0.979213
vn 0.0000 1.0000 0.0000
vn 1.0000 0.0000 0.0000
vn -0.0000 -0.0000 1.0000
vn -1.0000 -0.0000 -0.0000
vn 0.0000 0.0000 -1.0000
usemtl Material
s off
f 5/1/1 8/2/1 7/3/1 6/4/1
f 1/5/2 5/1/2 6/4/2 2/6/2
f 2/7/3 6/8/3 7/9/3 3/10/3
f 3/11/4 7/3/4 8/2/4 4/12/4
f 5/13/5 1/14/5 4/15/5 8/16/5
